:SAMPLES-PER-SECOND 30
:FULLY-SPECIFIED
:DEGREES
436
root  -56.7962 30.2813 18.0188 -168.917 -31.788 166.753
RightUpLeg  -21.3463 -6.39359 11.3297
RightLeg  46.3743 -6.05965 -5.59523
RightFoot  -29.3543 0.920345 3.89048
RightToes  21.5917 0.0150724 0.209503
Spine  7.77477 -4.63044 0.20254
Spine1  13.5629 -9.60332 -0.176629
HEad  38.8881 -24.729 15.9404
LeftShoulder1  0 -2.42657e-020 -4.95415e-022
LeftArm  9.60259 -20.1134 -90.4805
LeftForeArm  72.0337 -25.8157 -4.80811
LeftHand  1.76199 -17.3482 -11.8861
RightShoulder  0 2.42657e-020 1.07489e-018
RightArm  -51.2395 4.02727 87.7274
RightForeArm  46.8782 13.8 2.45989
RightHand  -1.52946 21.2461 -7.77348
LeftUpLeg  -28.3201 -6.09917 4.15969
LeftLeg  60.8189 2.64624 4.07707
LeftFoot  -9.31252 -0.0913029 -1.12099
LeftToes  -8.3589 3.33339e-006 -4.73431e-007
437
root  -57.7535 30.8332 16.8015 -167.724 -27.4288 166.658
RightUpLeg  -17.5459 -4.35038 9.50867
RightLeg  42.0981 -5.0652 -4.02988
RightFoot  -27.8507 0.612299 2.84677
RightToes  20.8977 0.0169936 0.202756
Spine  7.53277 -4.11545 -0.171137
Spine1  13.0328 -8.06378 -1.01198
HEad  39.9119 -23.5715 15.0709
LeftShoulder1  0 -2.42657e-020 -4.95415e-022
LeftArm  7.08394 -18.0156 -89.4836
LeftForeArm  75.027 -22.1596 -4.02596
LeftHand  1.93741 -15.4856 -14.554
RightShoulder  0 2.42657e-020 1.07489e-018
RightArm  -55.2237 5.43656 88.8609
RightForeArm  46.4971 12.2601 2.17513
RightHand  -1.53263 20.6158 -8.04473
LeftUpLeg  -32.7243 -4.07673 2.68437
LeftLeg  50.9052 3.19476 3.43925
LeftFoot  -8.6265 -0.0692026 -0.917516
LeftToes  -11.2888 3.33339e-006 -4.73431e-007
438
root  -58.7408 31.3826 15.4747 -167.054 -22.9951 167.071
RightUpLeg  -13.3405 -1.50881 7.84713
RightLeg  37.5448 -4.05128 -2.73167
RightFoot  -25.4324 0.341949 1.89287
RightToes  18.1814 0.0182636 0.176277
Spine  7.35168 -3.15354 -0.395209
Spine1  12.8247 -5.41409 -1.97709
HEad  39.1063 -22.2855 14.354
LeftShoulder1  0 -2.42657e-020 -4.95415e-022
LeftArm  0.688919 -13.8836 -87.313
LeftForeArm  71.2928 -22.8291 -4.175
LeftHand  1.18662 -14.8783 -9.44341
RightShoulder  0 2.42657e-020 1.07489e-018
RightArm  -57.1693 5.99452 89.125
RightForeArm  46.0965 11.9002 2.10956
RightHand  -1.36675 20.8539 -7.04922
LeftUpLeg  -35.1819 -2.08144 0.919824
LeftLeg  38.2781 1.06816 0.73166
LeftFoot  -7.92257 -0.0181774 -0.262507
LeftToes  -15.455 3.33339e-006 -4.73431e-007
439
root  -59.7067 31.7797 13.9934 -167.03 -18.4369 168.119
RightUpLeg  -8.82993 4.09603 7.34001
RightLeg  33.5322 -4.96104 -2.85265
RightFoot  -22.5635 0.314992 1.95652
RightToes  14.2968 0.0184182 0.138292
Spine  7.14279 -1.76786 -0.358153
Spine1  12.6506 -2.22338 -2.12732
HEad  38.0348 -22.5946 14.0361
LeftShoulder1  0 -2.42657e-020 -4.95415e-022
LeftArm  -5.11196 -9.36933 -86.3355
LeftForeArm  64.9289 -24.9599 -4.64227
LeftHand  0.711886 -14.427 -5.99285
RightShoulder  0 2.42657e-020 1.07489e-018
RightArm  -59.8208 4.84998 88.8634
RightForeArm  46.9805 13.6069 2.42374
RightHand  -0.982998 21.7356 -4.74821
LeftUpLeg  -36.3344 1.62702 -1.17936
LeftLeg  26.7848 -5.41522 -2.30869
LeftFoot  -5.56913 0.0270154 0.555423
LeftToes  -23.5764 3.33339e-006 -4.73431e-007
440
root  -60.6417 31.9954 12.456 -167.065 -14.1505 169.365
RightUpLeg  -5.22842 10.2712 7.52095
RightLeg  31.5711 -6.42443 -3.39753
RightFoot  -19.7486 0.320548 2.219
RightToes  9.97127 0.0164985 0.0960257
Spine  6.7933 -0.396326 -0.164698
Spine1  12.339 0.61287 -1.78671
HEad  37.3431 -23.2216 13.1621
LeftShoulder1  0 -2.42657e-020 -4.95415e-022
LeftArm  -8.35584 -5.00764 -85.383
LeftForeArm  58.8868 -28.3356 -5.40514
LeftHand  0.690489 -13.8245 -6.06401
RightShoulder  0 2.42657e-020 1.07489e-018
RightArm  -52.7855 1.65709 87.4194
RightForeArm  40.5027 17.3342 3.13958
RightHand  -0.814873 22.01 -3.81948
LeftUpLeg  -37.3959 7.48769 -4.75511
LeftLeg  20.2965 -15.4776 -4.55513
LeftFoot  -1.01812 0.00319706 0.359817
LeftToes  -39.1769 3.33339e-006 -4.73431e-007
441
root  -61.6958 32.0544 10.7564 -167.446 -10.6758 169.181
RightUpLeg  -2.24471 10.8855 5.59626
RightLeg  32.0298 -4.49874 -2.4332
RightFoot  -17.1451 0.145871 1.34525
RightToes  0.906948 0.00218883 0.00859901
Spine  6.55767 0.106643 -0.44837
Spine1  12.1572 1.53726 -2.22668
HEad  37.6414 -22.6736 11.5112
LeftShoulder1  0 -2.42657e-020 -4.95415e-022
LeftArm  -10.7966 -0.187988 -83.3918
LeftForeArm  57.349 -32.3563 -6.36744
LeftHand  0.666916 -13.6166 -5.95459
RightShoulder  0 2.42657e-020 1.07489e-018
RightArm  -42.4482 -2.65745 86.1728
RightForeArm  28.346 22.8174 4.24825
RightHand  -1.15276 20.5572 -5.98224
LeftUpLeg  -36.3427 5.66247 -6.54114
LeftLeg  19.3733 -19.0671 -5.24562
LeftFoot  1.93145 0.00997051 -0.591491
LeftToes  -40.9231 3.33339e-006 -4.73431e-007
